<svg width="160" height="160" viewBox="0 0 160 160" xmlns="http://www.w3.org/2000/svg" fill="none" stroke="#0077b6" stroke-width="3" >
  <!-- Terrain rectangle (avec coins arrondis) -->
  <rect x="20" y="20" width="120" height="80" rx="15" ry="15" fill="#90e0ef" stroke="#023e8a" stroke-width="4"/>
  
  <!-- Ligne médiane terrain -->
  <line x1="80" y1="20" x2="80" y2="100" stroke="#023e8a" stroke-width="2" stroke-dasharray="5 5"/>
  
  <!-- Ballon football stylisé -->
  <circle cx="50" cy="60" r="15" fill="#ffb703" stroke="#fb8500" stroke-width="2"/>
  <path d="M50 45 L50 75 M35 60 L65 60" stroke="#fff" stroke-width="2"/>
  
  <!-- Panier basketball stylisé -->
  <circle cx="110" cy="60" r="15" fill="#d00000" stroke="#9d0208" stroke-width="2"/>
  <path d="M110 45 L110 75 M95 60 L125 60 M100 50 L120 70 M100 70 L120 50" stroke="#fff" stroke-width="2"/>
  
  <!-- Raquette tennis stylisée -->
  <ellipse cx="80" cy="130" rx="25" ry="15" fill="#0077b6" stroke="#023e8a" stroke-width="3"/>
  <line x1="65" y1="120" x2="95" y2="140" stroke="#caf0f8" stroke-width="3"/>
  <line x1="95" y1="120" x2="65" y2="140" stroke="#caf0f8" stroke-width="3"/>
  
  <!-- Calendrier pour symboliser réservation -->
  <rect x="120" y="110" width="30" height="30" fill="#48cae4" stroke="#023e8a" stroke-width="2" rx="5" ry="5"/>
  <line x1="120" y1="120" x2="150" y2="120" stroke="#023e8a" stroke-width="2"/>
  <circle cx="130" cy="135" r="3" fill="#023e8a"/>
  <circle cx="140" cy="135" r="3" fill="#023e8a"/>
</svg>
